# Blender v2.76 (sub 0) OBJ File: ''
# www.blender.org
mtllib piece.mtl
o Cube.001
v -0.015000 0.045000 -0.025000
v 0.035000 0.045000 -0.025000
v 0.035000 0.015000 -0.025000
v 0.035000 0.015000 0.025000
v 0.035000 0.045000 -0.000000
v -0.015000 0.045000 -0.000000
v -0.015000 0.015000 0.025000
v -0.050000 0.045000 -0.000000
v -0.015000 0.015000 -0.025000
v -0.015000 -0.020000 -0.025000
v -0.015000 -0.020000 0.025000
v -0.050000 0.015000 -0.025000
v -0.050000 0.015000 0.025000
v -0.050000 0.045000 -0.025000
v -0.050000 -0.020000 -0.025000
v -0.050000 -0.020000 0.025000
v 0.035000 -0.020000 0.025000
v 0.060000 0.005000 0.025000
v 0.035000 -0.020000 -0.025000
v -0.015000 -0.040000 -0.025000
v 0.035000 -0.040000 -0.025000
v 0.035000 -0.040000 0.025000
v 0.065000 -0.040000 -0.025000
v 0.065000 -0.040000 0.025000
v -0.015000 -0.040000 0.025000
v -0.050000 -0.040000 -0.025000
v -0.050000 -0.040000 0.025000
v 0.065000 -0.030000 0.025000
v 0.065000 -0.030000 -0.025000
v 0.060000 0.015000 0.025000
v 0.060000 0.005000 -0.025000
v 0.060000 0.015000 -0.025000
vn 0.000000 -0.000000 -1.000000
vn 0.000000 0.640200 0.768200
vn 0.000000 1.000000 -0.000000
vn 1.000000 -0.000000 0.000000
vn -1.000000 0.000000 0.000000
vn 0.000000 -1.000000 0.000000
vn 0.000000 0.000000 1.000000
vn 0.316200 0.948700 -0.000000
vn 0.707100 -0.707100 0.000000
usemtl Material.001
s 1
f 1//1 2//1 3//1
f 4//2 5//2 6//2
f 7//2 6//2 8//2
f 6//3 5//3 2//3
f 5//4 4//4 3//4
f 9//5 10//5 11//5
f 12//5 13//5 8//5
f 1//3 14//3 8//3
f 7//6 13//6 12//6
f 1//1 9//1 12//1
f 10//3 15//3 16//3
f 4//7 7//7 11//7
f 4//7 17//7 18//7
f 9//1 3//1 19//1
f 20//6 21//6 22//6
f 21//6 23//6 24//6
f 19//1 21//1 20//1
f 11//7 25//7 22//7
f 15//5 26//5 27//5
f 10//1 20//1 26//1
f 11//7 16//7 27//7
f 25//6 27//6 26//6
f 28//4 24//4 23//4
f 21//1 19//1 29//1
f 17//8 28//8 29//8
f 22//7 24//7 28//7
f 30//4 18//4 31//4
f 17//9 19//9 31//9
f 4//3 30//3 32//3
f 3//1 32//1 31//1
f 9//1 1//1 3//1
f 7//2 4//2 6//2
f 13//2 7//2 8//2
f 1//3 6//3 2//3
f 2//4 5//4 3//4
f 7//5 9//5 11//5
f 14//5 12//5 8//5
f 6//3 1//3 8//3
f 9//6 7//6 12//6
f 14//1 1//1 12//1
f 11//3 10//3 16//3
f 17//7 4//7 11//7
f 30//7 4//7 18//7
f 10//1 9//1 19//1
f 25//6 20//6 22//6
f 22//6 21//6 24//6
f 10//1 19//1 20//1
f 17//7 11//7 22//7
f 16//5 15//5 27//5
f 15//1 10//1 26//1
f 25//7 11//7 27//7
f 20//6 25//6 26//6
f 29//4 28//4 23//4
f 23//1 21//1 29//1
f 19//8 17//8 29//8
f 17//7 22//7 28//7
f 32//4 30//4 31//4
f 18//9 17//9 31//9
f 3//3 4//3 32//3
f 19//1 3//1 31//1
